<svg width="55" height="54" viewBox="0 0 55 54" fill="none" xmlns="http://www.w3.org/2000/svg">
<path d="M54.5611 37.0159C54.3901 34.9298 53.5038 32.967 52.0521 31.4591C50.6005 29.9513 48.6723 28.9911 46.5943 28.7414C43.9493 28.4423 41.3105 29.3516 39.411 31.2169C37.5119 29.3516 34.8733 28.4423 32.2285 28.7414C30.1504 28.9907 28.2227 29.9505 26.7706 31.458C25.3185 32.9655 24.4323 34.9283 24.261 37.0144C24.0131 39.7125 24.9563 42.3843 26.8429 44.3288L34.0722 51.7377C35.4723 53.1837 37.3985 54 39.4114 54C41.4239 54 43.3505 53.1837 44.7505 51.7377L51.9798 44.3288C53.8661 42.3847 54.8089 39.7137 54.5611 37.0159ZM49.564 41.9719L42.3347 49.3808C41.5701 50.176 40.5143 50.6253 39.4111 50.6253C38.3079 50.6253 37.2524 50.176 36.4879 49.3808L29.2586 41.9719C28.0596 40.7312 27.4623 39.0286 27.6231 37.3109C27.7372 36.0061 28.2921 34.7792 29.1957 33.8319C30.0997 32.8842 31.2989 32.272 32.5966 32.0965C33.6561 31.9816 34.7263 32.1745 35.6789 32.6521C36.6318 33.1294 37.4269 33.8711 37.9697 34.7882C38.2756 35.2919 38.8221 35.5992 39.4116 35.5992C40.0007 35.5992 40.5472 35.2919 40.8534 34.7882C41.3951 33.8699 42.1902 33.1274 43.1435 32.6498C44.0965 32.1726 45.1673 31.9801 46.2272 32.0961C47.5244 32.272 48.7237 32.8841 49.6273 33.8318C50.531 34.7796 51.0854 36.0064 51.1996 37.3108C51.3608 39.0288 50.7633 40.7315 49.564 41.9719ZM21.6932 23.6252H25.0681C25.4471 23.624 25.8154 23.7506 26.1134 23.9849C26.4113 24.2192 26.6211 24.5469 26.7093 24.9157C26.8543 25.4976 27.2972 25.9587 27.8727 26.127C28.4486 26.2958 29.0701 26.1459 29.506 25.7338C29.9418 25.3217 30.1263 24.7096 29.9904 24.1253C29.7263 23.0194 29.0965 22.0347 28.2035 21.3315C27.3101 20.6282 26.2053 20.247 25.0681 20.25H21.6933C20.3512 20.2515 19.0641 20.7853 18.1154 21.7345C17.1662 22.6834 16.6325 23.9706 16.6309 25.3126V37.969H11.5686C11.1211 37.9686 10.6925 37.7904 10.3761 37.474C10.0597 37.1576 9.88156 36.729 9.88118 36.2815V19.6194L22.5572 12.5209C23.0695 12.2357 23.6925 12.2357 24.2052 12.5209L36.8802 19.6194V26.1566C36.8802 26.7597 37.2019 27.3168 37.724 27.6181C38.246 27.9195 38.8894 27.9195 39.4114 27.6181C39.9335 27.3168 40.2551 26.7597 40.2551 26.1566V20.9321C41.7768 21.0541 43.2809 20.5347 44.4026 19.4988C45.5243 18.463 46.1619 17.0056 46.1612 15.4786C46.1608 14.5787 45.9205 13.6954 45.4655 12.919C45.0105 12.1427 44.357 11.5016 43.5724 11.0612L25.8542 1.13858C24.316 0.283897 22.4454 0.283897 20.9071 1.13858L13.256 5.42335V5.06249C13.256 3.25366 12.291 1.58233 10.7248 0.678305C9.15869 -0.226102 7.22864 -0.226102 5.6625 0.678305C4.09637 1.58233 3.13134 3.25366 3.13134 5.06249V11.0988C1.56704 12.0028 0.602398 13.6716 0.60018 15.4785C0.594907 16.4341 0.842747 17.3743 1.31772 18.2034C1.79307 19.0328 2.47897 19.7218 3.3061 20.2005C4.1438 20.6955 5.09865 20.9577 6.07196 20.9599C6.21698 20.9599 6.36162 20.9437 6.50625 20.932V36.2817C6.50776 37.6239 7.04149 38.911 7.99072 39.8598C8.93953 40.809 10.2266 41.3428 11.5686 41.3443H20.0058C20.6088 41.3443 21.1659 41.0226 21.4672 40.5006C21.7685 39.9785 21.7685 39.3351 21.4672 38.813C21.1659 38.291 20.6088 37.9693 20.0058 37.9693V25.3129C20.0062 24.8654 20.1843 24.4367 20.5007 24.1203C20.8171 23.8039 21.2458 23.6255 21.6932 23.6252ZM8.19371 3.3749C8.64118 3.37527 9.06982 3.55345 9.3862 3.86985C9.70259 4.18626 9.88076 4.61493 9.88114 5.0624V7.31308L6.50625 9.20329V5.0625C6.50663 4.61501 6.68479 4.18635 7.00118 3.86995C7.31757 3.55355 7.74626 3.37527 8.19371 3.3749ZM5.01284 17.2888C4.69456 17.1065 4.43052 16.8428 4.24822 16.5245C4.06591 16.2062 3.97137 15.8453 3.97514 15.4784C3.97514 15.1786 4.05537 14.884 4.20716 14.6252C4.35895 14.3664 4.57704 14.1529 4.83882 14.0063L22.557 4.08371C23.0692 3.79856 23.6922 3.79856 24.2049 4.08371L41.923 14.0063C42.1848 14.1529 42.4025 14.3664 42.5543 14.6252C42.7061 14.884 42.7863 15.1786 42.7863 15.4784C42.7863 16.2231 42.3916 16.912 41.749 17.2887C41.1064 17.6654 40.3124 17.6729 39.6626 17.309L25.8545 9.57584C24.3162 8.72152 22.4461 8.72152 20.9074 9.57584L7.09933 17.309C6.78142 17.4913 6.4202 17.5859 6.05369 17.5821C5.68682 17.5787 5.32735 17.4775 5.01284 17.2888Z" fill="#01565D"/>
<path d="M49.564 41.9719L42.3347 49.3808C41.5701 50.176 40.5143 50.6253 39.4111 50.6253C38.3079 50.6253 37.2524 50.176 36.4879 49.3808L29.2586 41.9719C28.0596 40.7312 27.4623 39.0286 27.6231 37.3109C27.7372 36.0061 28.2921 34.7792 29.1957 33.8319C30.0997 32.8842 31.2989 32.272 32.5966 32.0965C33.6561 31.9816 34.7263 32.1745 35.6789 32.6521C36.6318 33.1294 37.4269 33.8711 37.9697 34.7882C38.2756 35.2919 38.8221 35.5992 39.4116 35.5992C40.0007 35.5992 40.5472 35.2919 40.8534 34.7882C41.3951 33.8699 42.1902 33.1274 43.1435 32.6498C44.0965 32.1726 45.1673 31.9801 46.2272 32.0961C47.5244 32.272 48.7237 32.8841 49.6273 33.8318C50.531 34.7796 51.0854 36.0064 51.1996 37.3108C51.3608 39.0288 50.7633 40.7315 49.564 41.9719Z" fill="#01565D"/>
<path d="M54.5611 37.0159C54.3901 34.9298 53.5038 32.967 52.0521 31.4591C50.6005 29.9513 48.6723 28.9911 46.5943 28.7414C43.9493 28.4423 41.3105 29.3516 39.411 31.2169C37.5119 29.3516 34.8733 28.4423 32.2285 28.7414C30.1504 28.9907 28.2227 29.9505 26.7706 31.458C25.3185 32.9655 24.4323 34.9283 24.261 37.0144C24.0131 39.7125 24.9563 42.3843 26.8429 44.3288L34.0722 51.7377C35.4723 53.1837 37.3985 54 39.4114 54C41.4239 54 43.3505 53.1837 44.7505 51.7377L51.9798 44.3288C53.8661 42.3847 54.8089 39.7137 54.5611 37.0159ZM49.564 41.9719L42.3347 49.3808C41.5701 50.176 40.5143 50.6253 39.4111 50.6253C38.3079 50.6253 37.2524 50.176 36.4879 49.3808L29.2586 41.9719C28.0596 40.7312 27.4623 39.0286 27.6231 37.3109C27.7372 36.0061 28.2921 34.7792 29.1957 33.8319C30.0997 32.8842 31.2989 32.272 32.5966 32.0965C33.6561 31.9816 34.7263 32.1745 35.6789 32.6521C36.6318 33.1294 37.4269 33.8711 37.9697 34.7882C38.2756 35.2919 38.8221 35.5992 39.4116 35.5992C40.0007 35.5992 40.5472 35.2919 40.8534 34.7882C41.3951 33.8699 42.1902 33.1274 43.1435 32.6498C44.0965 32.1726 45.1673 31.9801 46.2272 32.0961C47.5244 32.272 48.7237 32.8841 49.6273 33.8318C50.531 34.7796 51.0854 36.0064 51.1996 37.3108C51.3608 39.0288 50.7633 40.7315 49.564 41.9719ZM21.6932 23.6252H25.0681C25.4471 23.624 25.8154 23.7506 26.1134 23.9849C26.4113 24.2192 26.6211 24.5469 26.7093 24.9157C26.8543 25.4976 27.2972 25.9587 27.8727 26.127C28.4486 26.2958 29.0701 26.1459 29.506 25.7338C29.9418 25.3217 30.1263 24.7096 29.9904 24.1253C29.7263 23.0194 29.0965 22.0347 28.2035 21.3315C27.3101 20.6282 26.2053 20.247 25.0681 20.25H21.6933C20.3512 20.2515 19.0641 20.7853 18.1154 21.7345C17.1662 22.6834 16.6325 23.9706 16.6309 25.3126V37.969H11.5686C11.1211 37.9686 10.6925 37.7904 10.3761 37.474C10.0597 37.1576 9.88156 36.729 9.88118 36.2815V19.6194L22.5572 12.5209C23.0695 12.2357 23.6925 12.2357 24.2052 12.5209L36.8802 19.6194V26.1566C36.8802 26.7597 37.2019 27.3168 37.724 27.6181C38.246 27.9195 38.8894 27.9195 39.4114 27.6181C39.9335 27.3168 40.2551 26.7597 40.2551 26.1566V20.9321C41.7768 21.0541 43.2809 20.5347 44.4026 19.4988C45.5243 18.463 46.1619 17.0056 46.1612 15.4786C46.1608 14.5787 45.9205 13.6954 45.4655 12.919C45.0105 12.1427 44.357 11.5016 43.5724 11.0612L25.8542 1.13858C24.316 0.283897 22.4454 0.283897 20.9071 1.13858L13.256 5.42335V5.06249C13.256 3.25366 12.291 1.58233 10.7248 0.678305C9.15869 -0.226102 7.22864 -0.226102 5.6625 0.678305C4.09637 1.58233 3.13134 3.25366 3.13134 5.06249V11.0988C1.56704 12.0028 0.602398 13.6716 0.60018 15.4785C0.594907 16.4341 0.842747 17.3743 1.31772 18.2034C1.79307 19.0328 2.47897 19.7218 3.3061 20.2005C4.1438 20.6955 5.09865 20.9577 6.07196 20.9599C6.21698 20.9599 6.36162 20.9437 6.50625 20.932V36.2817C6.50776 37.6239 7.04149 38.911 7.99072 39.8598C8.93953 40.809 10.2266 41.3428 11.5686 41.3443H20.0058C20.6088 41.3443 21.1659 41.0226 21.4672 40.5006C21.7685 39.9785 21.7685 39.3351 21.4672 38.813C21.1659 38.291 20.6088 37.9693 20.0058 37.9693V25.3129C20.0062 24.8654 20.1843 24.4367 20.5007 24.1203C20.8171 23.8039 21.2458 23.6255 21.6932 23.6252ZM8.19371 3.3749C8.64118 3.37527 9.06982 3.55345 9.3862 3.86985C9.70259 4.18626 9.88076 4.61493 9.88114 5.0624V7.31308L6.50625 9.20329V5.0625C6.50663 4.61501 6.68479 4.18635 7.00118 3.86995C7.31757 3.55355 7.74626 3.37527 8.19371 3.3749ZM5.01284 17.2888C4.69456 17.1065 4.43052 16.8428 4.24822 16.5245C4.06591 16.2062 3.97137 15.8453 3.97514 15.4784C3.97514 15.1786 4.05537 14.884 4.20716 14.6252C4.35895 14.3664 4.57704 14.1529 4.83882 14.0063L22.557 4.08371C23.0692 3.79856 23.6922 3.79856 24.2049 4.08371L41.923 14.0063C42.1848 14.1529 42.4025 14.3664 42.5543 14.6252C42.7061 14.884 42.7863 15.1786 42.7863 15.4784C42.7863 16.2231 42.3916 16.912 41.749 17.2887C41.1064 17.6654 40.3124 17.6729 39.6626 17.309L25.8545 9.57584C24.3162 8.72152 22.4461 8.72152 20.9074 9.57584L7.09933 17.309C6.78142 17.4913 6.4202 17.5859 6.05369 17.5821C5.68682 17.5787 5.32735 17.4775 5.01284 17.2888Z" fill="#01565D"/>
<path d="M49.564 41.9719L42.3347 49.3808C41.5701 50.176 40.5143 50.6253 39.4111 50.6253C38.3079 50.6253 37.2524 50.176 36.4879 49.3808L29.2586 41.9719C28.0596 40.7312 27.4623 39.0286 27.6231 37.3109C27.7372 36.0061 28.2921 34.7792 29.1957 33.8319C30.0997 32.8842 31.2989 32.272 32.5966 32.0965C33.6561 31.9816 34.7263 32.1745 35.6789 32.6521C36.6318 33.1294 37.4269 33.8711 37.9697 34.7882C38.2756 35.2919 38.8221 35.5992 39.4116 35.5992C40.0007 35.5992 40.5472 35.2919 40.8534 34.7882C41.3951 33.8699 42.1902 33.1274 43.1435 32.6498C44.0965 32.1726 45.1673 31.9801 46.2272 32.0961C47.5244 32.272 48.7237 32.8841 49.6273 33.8318C50.531 34.7796 51.0854 36.0064 51.1996 37.3108C51.3608 39.0288 50.7633 40.7315 49.564 41.9719Z" fill="#FE7235"/>
</svg>
