<svg width="17" height="17" viewBox="0 0 17 17" fill="none" xmlns="http://www.w3.org/2000/svg">
<path d="M16.8246 8.98857C16.8246 7.72603 16.1254 6.63129 15.1082 6.11189C15.2313 5.7643 15.2984 5.38873 15.2984 4.99319C15.2984 3.22723 13.932 1.79848 12.2475 1.79848C11.8719 1.79848 11.5124 1.8656 11.1799 1.99825C10.6861 0.929885 9.64092 0.19873 8.43431 0.19873C7.22771 0.19873 6.18411 0.931483 5.68789 1.99665C5.35627 1.8648 4.99589 1.79688 4.62032 1.79688C2.93427 1.79688 1.56945 3.22723 1.56945 4.99319C1.56945 5.38793 1.63577 5.7635 1.75883 6.11189C0.742404 6.63129 0.0432129 7.72443 0.0432129 8.98857C0.0432129 10.1832 0.668091 11.2244 1.59502 11.7741C1.57904 11.91 1.56945 12.0458 1.56945 12.1849C1.56945 13.9508 2.93427 15.3812 4.62032 15.3812C4.99589 15.3812 5.35547 15.3125 5.68709 15.1814C6.18252 16.2474 7.22611 16.9793 8.43351 16.9793C9.64172 16.9793 10.6853 16.2474 11.1799 15.1814C11.5116 15.3117 11.8711 15.3796 12.2475 15.3796C13.9336 15.3796 15.2984 13.9492 15.2984 12.1833C15.2984 12.0442 15.2888 11.9084 15.272 11.7733C16.1973 11.2244 16.8246 10.1824 16.8246 8.98857ZM11.5379 6.32445L8.07473 11.5184C7.95886 11.6918 7.76948 11.7853 7.57531 11.7853C7.46104 11.7853 7.34517 11.7534 7.24289 11.6847L7.151 11.6095L5.22123 9.67977C4.9871 9.44564 4.9871 9.06608 5.22123 8.83275C5.45536 8.59942 5.83492 8.59782 6.06825 8.83275L7.48261 10.2447L10.5391 5.65802C10.7229 5.38234 11.0952 5.30962 11.3701 5.49261C11.6466 5.6764 11.7217 6.04957 11.5379 6.32445Z" fill="#01565D"/>
</svg>
